<?xml version="1.0" standalone="no"?>
<!DOCTYPE svg PUBLIC "-//W3C//DTD SVG 20010904//EN"
 "http://www.w3.org/TR/2001/REC-SVG-20010904/DTD/svg10.dtd">
<svg version="1.0" xmlns="http://www.w3.org/2000/svg"
 width="200.000000pt" height="200.000000pt" viewBox="0 0 200.000000 200.000000"
 preserveAspectRatio="xMidYMid meet">
<metadata>
Created by potrace 1.11, written by Peter Selinger 2001-2013
</metadata>
<g transform="translate(0.000000,200.000000) scale(0.100000,-0.100000)"
fill="#000000" stroke="none">
<path d="M1289 1354 c-46 -25 -91 -54 -99 -64 -8 -10 -49 -62 -90 -116 l-75
-97 42 -36 42 -36 -40 -62 -41 -62 53 -83 c50 -79 59 -87 172 -161 99 -65 122
-77 132 -65 25 27 215 315 215 326 0 9 -29 33 -104 84 -7 4 -2 16 12 31 22 24
77 200 69 221 -3 6 -49 46 -104 88 l-100 76 -84 -44z m171 -68 c36 -27 67 -51
69 -53 6 -5 -17 -44 -45 -76 l-25 -29 -75 58 c-41 32 -77 61 -79 64 -8 12 67
100 79 93 6 -3 40 -29 76 -57z m-174 8 c-9 -8 -21 -12 -28 -8 -8 5 -6 10 8 15
31 12 37 10 20 -7z m-42 -42 c6 -10 -34 -49 -78 -76 -32 -20 -29 -12 17 47 28
36 50 46 61 29z m117 -93 c69 -54 88 -79 59 -79 -7 0 -66 42 -134 97 -23 19
-29 43 -10 43 3 0 41 -28 85 -61z m-57 -41 c30 -23 54 -44 52 -45 -2 -2 -38 4
-82 12 -102 19 -97 20 -117 -15 -21 -35 -24 -36 -56 -11 l-23 18 73 47 c40 25
79 44 85 42 7 -3 37 -24 68 -48z m211 -7 c-3 -12 -11 -19 -16 -16 -5 4 -3 14
3 25 15 24 22 19 13 -9z m-29 -52 c9 -16 -33 -56 -46 -43 -6 6 -5 17 6 32 17
24 29 28 40 11z m-242 -40 c51 -34 52 -36 31 -63 -13 -18 -16 -17 -64 19 -44
31 -49 39 -41 56 14 25 21 24 74 -12z m74 21 c12 0 13 -3 5 -11 -8 -8 -17 -7
-35 6 -16 12 -18 16 -5 11 10 -3 26 -6 35 -6z m66 -28 c2 -4 1 -14 -4 -22 -7
-11 -12 -12 -21 -3 -6 6 -8 16 -5 22 8 13 23 14 30 3z m-193 -68 c30 -21 46
-40 42 -47 -4 -7 -16 -25 -27 -42 -12 -16 -22 -32 -23 -34 -3 -5 -103 60 -103
66 0 8 54 93 59 93 2 0 25 -16 52 -36z m239 26 c0 -5 -5 -10 -11 -10 -5 0 -7
5 -4 10 3 6 8 10 11 10 2 0 4 -4 4 -10z m-86 -18 c2 -4 -4 -19 -14 -32 -25
-33 -48 -15 -24 18 16 23 29 28 38 14z m175 -56 l37 -11 -93 -137 -93 -137
-54 71 -54 72 29 43 c25 36 33 42 49 33 15 -8 24 -2 55 40 40 54 35 53 124 26z
m-234 -26 c10 -15 -45 -89 -61 -83 -17 6 -17 6 16 55 26 39 35 45 45 28z
m-125 -85 c0 -15 -21 -12 -30 5 -11 20 -10 21 9 10 12 -6 21 -13 21 -15z m84
-67 c19 -24 33 -44 31 -46 -8 -8 -101 64 -98 76 8 23 31 12 67 -30z"/>
<path d="M303 1077 c-3 -5 -6 -39 -6 -76 -1 -64 0 -66 26 -69 24 -3 27 0 28
30 0 18 3 27 6 21 8 -22 59 -15 75 10 17 25 6 86 -15 89 -36 4 -43 3 -54 -5
-9 -6 -13 -6 -13 1 0 13 -39 12 -47 -1z m85 -47 c-2 -14 -10 -26 -20 -28 -14
-3 -18 3 -18 25 0 22 5 29 20 29 16 0 20 -6 18 -26z"/>
<path d="M467 1076 c-3 -10 -2 -118 2 -138 0 -5 10 -8 20 -8 21 0 37 32 25 52
-6 10 -4 11 7 1 19 -19 60 -16 75 5 19 24 17 67 -3 83 -19 17 -73 20 -73 5 0
-8 -3 -7 -8 0 -9 14 -40 14 -45 0z m93 -48 c0 -21 -4 -27 -17 -25 -20 3 -23 8
-23 36 0 14 6 19 20 18 15 -1 20 -8 20 -29z"/>
</g>
</svg>
